<svg width="30" height="30" viewBox="0 0 30 30" fill="none" xmlns="http://www.w3.org/2000/svg">
<g clip-path="url(#clip0_78_281)">
<path d="M0 30L2.12034 22.3004C0.809455 20.0404 0.121776 17.481 0.12894 14.8645C0.12894 6.66588 6.83381 0 15.0645 0C19.0616 0 22.8152 1.54705 25.6304 4.35599C28.4527 7.16493 30.0071 10.9007 30 14.8717C30 23.0703 23.2951 29.7362 15.0573 29.7362H15.0501C12.5501 29.7362 10.0931 29.1088 7.9083 27.9254L0 30ZM8.28796 25.2376L8.73925 25.5086C10.6447 26.635 12.8295 27.2267 15.0573 27.2338H15.0645C21.9054 27.2338 27.4785 21.6944 27.4785 14.8788C27.4785 11.5779 26.1891 8.47671 23.8467 6.13831C21.5043 3.79991 18.3811 2.51664 15.0645 2.51664C8.22349 2.50951 2.65043 8.04896 2.65043 14.8645C2.65043 17.1958 3.30229 19.4701 4.54871 21.4377L4.8424 21.9083L3.58882 26.4639L8.28796 25.2376Z" fill="white"/>
<path d="M0.522869 29.4796L2.57158 22.0437C1.30367 19.8693 0.637482 17.3955 0.637482 14.8717C0.644645 6.95819 7.11312 0.520447 15.0644 0.520447C18.9254 0.520447 22.5429 2.0176 25.265 4.72672C27.987 7.43585 29.4842 11.0433 29.4842 14.8788C29.4842 22.7923 23.0085 29.2301 15.0644 29.2301H15.0572C12.6432 29.2301 10.2721 28.6241 8.16613 27.4834L0.522869 29.4796Z" fill="#14AE64"/>
<path d="M0 30L2.12034 22.3004C0.809455 20.0404 0.121776 17.481 0.12894 14.8645C0.12894 6.66588 6.83381 0 15.0645 0C19.0616 0 22.8152 1.54705 25.6304 4.35599C28.4527 7.16493 30.0071 10.9007 30 14.8717C30 23.0703 23.2951 29.7362 15.0573 29.7362H15.0501C12.5501 29.7362 10.0931 29.1088 7.9083 27.9254L0 30ZM8.28796 25.2376L8.73925 25.5086C10.6447 26.635 12.8295 27.2267 15.0573 27.2338H15.0645C21.9054 27.2338 27.4785 21.6944 27.4785 14.8788C27.4785 11.5779 26.1891 8.47671 23.8467 6.13831C21.5043 3.79991 18.3811 2.51664 15.0645 2.51664C8.22349 2.50951 2.65043 8.04896 2.65043 14.8645C2.65043 17.1958 3.30229 19.4701 4.54871 21.4377L4.8424 21.9083L3.58882 26.4639L8.28796 25.2376Z" fill="white"/>
<path fill-rule="evenodd" clip-rule="evenodd" d="M11.3323 8.64779C11.0529 8.02754 10.7592 8.01328 10.4942 8.00615C10.2793 7.99902 10.0285 7.99902 9.77783 7.99902C9.52712 7.99902 9.12597 8.0917 8.78213 8.46243C8.43829 8.83315 7.47841 9.73144 7.47841 11.5637C7.47841 13.3888 8.81795 15.1568 9.0042 15.4063C9.19044 15.6559 11.5902 19.5271 15.3795 21.0171C18.5314 22.2576 19.1761 22.0081 19.8566 21.9439C20.5371 21.8797 22.0629 21.0456 22.3781 20.1758C22.6861 19.3061 22.6861 18.5646 22.593 18.4078C22.4999 18.2509 22.2492 18.1582 21.8767 17.9729C21.5042 17.7875 19.6704 16.8892 19.3265 16.7609C18.9827 16.6397 18.732 16.5755 18.4884 16.9463C18.2377 17.317 17.5214 18.1511 17.3065 18.4006C17.0916 18.6502 16.8695 18.6787 16.497 18.4933C16.1245 18.308 14.9211 17.9159 13.4956 16.6468C12.3853 15.663 11.6331 14.4439 11.4182 14.0732C11.2033 13.7024 11.3967 13.5028 11.583 13.3175C11.7477 13.1535 11.9555 12.8826 12.1417 12.6687C12.328 12.4548 12.3924 12.298 12.5142 12.0485C12.636 11.7989 12.5787 11.5851 12.4856 11.3997C12.3924 11.2215 11.6618 9.3821 11.3323 8.64779Z" fill="white"/>
</g>
<defs>
<clipPath id="clip0_78_281">
<rect width="30" height="30" fill="white"/>
</clipPath>
</defs>
</svg>
